<svg xmlns="http://www.w3.org/2000/svg" width="1200" height="250" viewBox="0 0 1200 250" role="img" aria-label="inVisionU architecture overview"><rect width="1200" height="250" rx="12" fill="#101317"/><text x="32" y="41" fill="#a4abb5" font-family="Consolas,monospace" font-size="13">SYSTEM OVERVIEW / INVISIONU</text><rect x="32" y="81" width="258" height="112" rx="8" fill="#191e25" stroke="#363e49"/><text x="49" y="111" fill="#e3ff8a" font-family="Consolas,monospace" font-size="13">01</text><text x="49" y="151" fill="#edf0f5" font-family="Arial,sans-serif" font-size="18">Structured application</text><path d="M300 137h18m-5-5 5 5-5 5" fill="none" stroke="#e3ff8a" stroke-width="2"/><rect x="324" y="81" width="258" height="112" rx="8" fill="#191e25" stroke="#363e49"/><text x="341" y="111" fill="#e3ff8a" font-family="Consolas,monospace" font-size="13">02</text><text x="341" y="151" fill="#edf0f5" font-family="Arial,sans-serif" font-size="18">Voice interview</text><path d="M592 137h18m-5-5 5 5-5 5" fill="none" stroke="#e3ff8a" stroke-width="2"/><rect x="616" y="81" width="258" height="112" rx="8" fill="#191e25" stroke="#363e49"/><text x="633" y="111" fill="#e3ff8a" font-family="Consolas,monospace" font-size="13">03</text><text x="633" y="151" fill="#edf0f5" font-family="Arial,sans-serif" font-size="18">Evidence &amp; assessment</text><path d="M884 137h18m-5-5 5 5-5 5" fill="none" stroke="#e3ff8a" stroke-width="2"/><rect x="908" y="81" width="258" height="112" rx="8" fill="#191e25" stroke="#363e49"/><text x="925" y="111" fill="#e3ff8a" font-family="Consolas,monospace" font-size="13">04</text><text x="925" y="151" fill="#edf0f5" font-family="Arial,sans-serif" font-size="18">Human review</text></svg>